# xmcd CD database file
#
# Track frame offsets:
#	150
#	11663
#	25158
#	39683
#	52225
#	70178
#	84265
#	96153
#	107403
#	121508
#	134255
#	144623
#	155033
#	167165
#	179985
#	196005
#
# Disc length: 2814 seconds
#
# Revision: 1
# Processed by: cddbd v1.4PL0 Copyright (c) Steve Scherf et al.
# Submitted via: CDex 1.40Release
#
DISCID=da0afc10
DTITLE=Various Artist - This Is Soul
DYEAR=1992
DGENRE=Soul
TTITLE0=Same and Dave - Soul Man
TTITLE1=Eddie Floyd - Knock On Wood
TTITLE2=Bobby Womack - That's The Way I Fell About Cha
TTITLE3=Irma Thomas - Ruler Of My Heart
TTITLE4=Brook Benton - Rainy Night In Georgia
TTITLE5=Joe Tex - Hold What You've Got
TTITLE6=Barbara Lewis - Hello Stranger
TTITLE7=Solomon Burke - If You Need Me
TTITLE8=Clarence Carter - Patches
TTITLE9=Fontella Bass - Rescue Me
TTITLE10=Brenton Wood - Gimme A Little Sign
TTITLE11=Rufus Thomas - Walking The Dog
TTITLE12=Tyrone Dacis - Turn Back The Hand Of Time
TTITLE13=Carla Thomas - B.a.b.y.
TTITLE14=Jimmy Castor Bunch - Trojlodyte
TTITLE15=Al Wilson - The Snake
EXTD=by Original Artists YEAR: 1992 ID3G: 42
EXTT0=
EXTT1=
EXTT2=
EXTT3=
EXTT4=
EXTT5=
EXTT6=
EXTT7=
EXTT8=
EXTT9=
EXTT10=
EXTT11=
EXTT12=
EXTT13=
EXTT14=
EXTT15=
PLAYORDER=
